<?xml version="1.0"?>
<svg width="400" height="400" xmlns="http://www.w3.org/2000/svg">

 <g>
  <title>background</title>
  <rect fill="none" id="canvas_background" height="402" width="402" y="-1" x="-1"/>
 </g>
 <g>
  <title>Layer 1</title>
  <g stroke="null" id="svg_15">
   <g stroke="null" transform="matrix(8.09689 0 0 8.30478 9416.68 -13766.8)" id="svg_6">
    <path stroke="null" fill="#ffffff" id="svg_7" fill-rule="evenodd" d="m-1138.369995,1657.697021c-13.600952,0 -24.630005,11.026733 -24.630005,24.629883c0,10.88208 7.057251,20.11438 16.843506,23.371338c1.230835,0.227905 1.682861,-0.534546 1.682861,-1.184937c0,-0.587036 -0.022705,-2.527588 -0.033325,-4.585693c-6.852173,1.490112 -8.297974,-2.906006 -8.297974,-2.906006c-1.120483,-2.84668 -2.734619,-3.603882 -2.734619,-3.603882c-2.234985,-1.528687 0.168457,-1.497192 0.168457,-1.497192c2.473022,0.173706 3.775513,2.538452 3.775513,2.538452c2.196655,3.765137 5.761841,2.676514 7.16748,2.047241c0.221069,-1.591675 0.859131,-2.678589 1.563721,-3.293579c-5.470703,-0.622681 -11.221802,-2.734741 -11.221802,-12.172241c0,-2.688843 0.96228,-4.886108 2.537964,-6.610962c-0.255737,-0.620605 -1.098877,-3.125488 0.238647,-6.518311c0,0 2.068359,-0.661621 6.774658,2.525024c1.964844,-0.545776 4.071899,-0.81958 6.165039,-0.828979c2.093018,0.009399 4.20166,0.283203 6.169922,0.828979c4.701294,-3.186646 6.766602,-2.525024 6.766602,-2.525024c1.340576,3.392822 0.497314,5.897705 0.241699,6.518311c1.579224,1.724854 2.53479,3.922119 2.53479,6.610962c0,9.460205 -5.761841,11.542847 -11.246582,12.15271c0.883423,0.764404 1.67041,2.263184 1.67041,4.561035c0,3.29541 -0.028198,5.947876 -0.028198,6.759155c0,0.65564 0.443237,1.423584 1.691528,1.181763c9.78125,-3.260498 16.82959,-12.489502 16.82959,-23.368164c0,-13.603149 -11.027466,-24.629883 -24.629883,-24.629883z" clip-rule="evenodd"/>
    <path stroke="null" fill="#ffffff" id="svg_8" d="m-1153.671265,1693.060059c-0.054199,0.122681 -0.246948,0.159302 -0.422241,0.075317c-0.178711,-0.080444 -0.278809,-0.247314 -0.221069,-0.369995c0.052979,-0.125977 0.245728,-0.161011 0.424194,-0.076904c0.178833,0.080444 0.280884,0.248901 0.219116,0.371582l0,0zm-0.303101,-0.224609"/>
    <path stroke="null" fill="#ffffff" id="svg_9" d="m-1152.673584,1694.172974c-0.117432,0.108643 -0.34729,0.058105 -0.503052,-0.113892c-0.161377,-0.171753 -0.191284,-0.401611 -0.072021,-0.511841c0.121094,-0.108765 0.34375,-0.057861 0.505005,0.113892c0.161377,0.173706 0.192749,0.401489 0.070068,0.511841l0,0zm-0.234985,-0.252197"/>
    <path stroke="null" fill="#ffffff" id="svg_10" d="m-1151.702393,1695.591309c-0.151001,0.105103 -0.397949,0.006714 -0.550537,-0.21228c-0.151001,-0.219116 -0.151001,-0.481934 0.00354,-0.58728c0.152588,-0.10498 0.395996,-0.010376 0.550537,0.206909c0.150513,0.222656 0.150513,0.485474 -0.00354,0.592651l0,0zm0,0"/>
    <path stroke="null" fill="#ffffff" id="svg_11" d="m-1150.37207,1696.961914c-0.135132,0.148926 -0.422729,0.108643 -0.632935,-0.094482c-0.215454,-0.198364 -0.275269,-0.480347 -0.140259,-0.629272c0.137085,-0.149048 0.42627,-0.1073 0.638062,0.09436c0.213867,0.198364 0.278809,0.481934 0.135132,0.629395l0,0zm0,0"/>
    <path stroke="null" fill="#ffffff" id="svg_12" d="m-1148.536743,1697.75769c-0.059692,0.192749 -0.336548,0.280396 -0.615356,0.198364c-0.278809,-0.084473 -0.460815,-0.310303 -0.404785,-0.505005c0.057739,-0.194336 0.336182,-0.285522 0.616943,-0.197998c0.278564,0.083984 0.460938,0.308228 0.403198,0.504639l0,0zm0,0"/>
    <path stroke="null" fill="#ffffff" id="svg_13" d="m-1146.520874,1697.905029c0.006714,0.203125 -0.229858,0.371582 -0.522583,0.375244c-0.294434,0.006714 -0.532959,-0.157715 -0.536133,-0.357788c0,-0.2052 0.231323,-0.371704 0.525757,-0.376709c0.292725,-0.005615 0.532959,0.157715 0.532959,0.359253l0,0zm0,0"/>
    <path stroke="null" fill="#ffffff" id="svg_14" d="m-1144.645264,1697.585938c0.035034,0.197998 -0.168579,0.401489 -0.459351,0.455688c-0.286011,0.052612 -0.550415,-0.070068 -0.587036,-0.266479c-0.0354,-0.203125 0.171631,-0.406616 0.457275,-0.459229c0.291138,-0.050537 0.552002,0.068481 0.589111,0.27002l0,0zm0,0"/>
   </g>
  </g>
 </g>
</svg>