<?xml version="1.0"?>
<svg width="400" height="400" 
    xmlns="http://www.w3.org/2000/svg">
    <g>
        <path stroke="null" id="svg_1" fill-rule="evenodd" clip-rule="evenodd" fill="#FFFFFF" d="m310.685486,293.775452l0,-77.689606c0,-41.624161 -22.221741,-60.993515 -51.846191,-60.993515c-23.906509,0 -34.619354,13.153915 -40.58934,22.38089l0,-19.196899l-45.040359,0c0.597015,12.716125 0,135.49913 0,135.49913l45.040359,0l0,-75.67308c0,-4.039719 0.291855,-8.086029 1.485809,-10.978134c3.250381,-8.092697 10.659821,-16.470612 23.097336,-16.470612c16.304749,0 22.818634,12.424271 22.818634,30.632767l0,72.495682l45.033752,0l0,-0.006622zm-184.92411,-153.992844c15.701103,0 25.485268,-10.414337 25.485268,-23.422295c-0.291855,-13.286575 -9.784164,-23.402412 -25.186775,-23.402412s-25.478638,10.1092 -25.478638,23.402412c0,13.007957 9.777527,23.422295 24.894913,23.422295l0.285233,0zm73.238625,259.217392c-109.90107,0 -199,-89.098907 -199,-199c0,-109.9077 89.09893,-199.000004 199,-199.000004s199,89.092304 199,199.000004c0,109.901093 -89.098907,199 -199,199zm-50.71846,-105.224548l0,-135.49913l-45.033699,0l0,135.49913l45.033699,0z"/>
    </g>
</svg>